<?xml version="1.0" encoding="utf-8"?>
<!-- Generator: Adobe Illustrator 27.0.0, SVG Export Plug-In . SVG Version: 6.00 Build 0)  -->
<svg version="1.1" id="_图层_1" xmlns="http://www.w3.org/2000/svg" xmlns:xlink="http://www.w3.org/1999/xlink" x="0px" y="0px"
     viewBox="0 0 768 684.1" style="enable-background:new 0 0 768 684.1;" xml:space="preserve">
  <path class="st0" d="M91.9,519c-13.8-23.7-27.6-47.3-41.3-71c-13.1-22.6-26.4-45-39-67.9c-4.8-8.9-7.8-18.7-11.6-28.2
	c0-6.7,0-13.3,0-20c5.7-23.9,20.8-43,32.3-64c64.4,0,128.9,0,193.4,0c0.1,2,0.2,4,0.2,6c0,48.6,0.2,97.2-0.1,145.7
	c-0.1,9.2,2.9,15.9,10.4,20.8c1.2,1.5,2.2,3.2,3.6,4.6c13.1,13.3,26.2,26.5,39.3,39.8c0.5,2,0.4,4.6,1.6,6c6.7,7.1,13.8,14,20.7,21
	c1.2,1.2,2.1,2.8,3.1,4.2c-1.7,0.3-3.4,0.8-5.2,0.8c-60.4,0-120.9,0-181.3,0.1C109.3,517.1,100.6,518.3,91.9,519L91.9,519z"/>
  <path class="st1" d="M768,352c-8.7,30.3-28,55-42.8,82.1c-1.8-1.3-3.9-2.4-5.5-4C661.9,372.4,604.2,314.6,546.4,257
	c-1.6-1.6-3.6-2.7-5.5-4c-3.4-3-6.5-6.7-10.4-9c-24.8-14.7-49.8-29.1-74.7-43.6c2.1-0.5,4.3-1.4,6.4-1.4
	c75.6-0.1,151.1-0.1,226.7-0.1c2,0,4.1-0.7,6.1-1.1c13.5,23.2,27.1,46.4,40.6,69.7c4.7,8,9.2,16.1,14,24.1
	c7.7,13.1,15.5,26.1,18.3,41.4L768,352L768,352z"/>
  <path class="st2" d="M695.1,197.8c-2,0.4-4.1,1.1-6.1,1.1c-75.6,0.1-151.2,0-226.7,0.1c-2.1,0-4.3,0.9-6.4,1.4
	c-20.6-11.8-41.3-23.6-61.9-35.5c-6.7-3.9-13-4-19.8,0c-46.2,26.8-92.5,53.5-138.8,80.1c-6.4,3.7-10.2,8.7-9.6,16.5
	c0.2,2.1-0.1,4.3-0.2,6.5c-64.4,0-128.9,0-193.4,0c16.4-28.6,32.8-57.2,49.3-85.7c28-48.6,56.1-97.2,84.2-145.8
	c14-24.1,35.1-36.3,62.7-36.3c103.7-0.2,207.3-0.2,311,0c27.8,0.1,49,12.2,63,36.6c30.2,52.5,60.6,105,90.9,157.5
	C694,195.3,694.5,196.6,695.1,197.8L695.1,197.8z"/>
  <path class="st3" d="M541,252.9c1.8,1.3,3.9,2.4,5.5,4c57.8,57.7,115.5,115.4,173.2,173.1c1.6,1.6,3.7,2.7,5.5,4
	c-10.5,18.3-20.8,36.7-31.4,55c-30.2,52.3-60.7,104.5-90.5,157c-12.2,21.5-30.5,33.6-54.3,37.8c-4.2,0.7-8.6,0.1-13,0.1
	c-20-0.1-40-0.2-60-0.2c-1.1-1.8-1.8-3.8-3.3-5.3c-29.2-29.7-58.4-59.4-87.8-88.8c-34.3-34.3-68.8-68.2-103.3-102.3
	c-0.8-0.8-1.8-1.5-2.7-2.2c-13.1-13.3-26.2-26.5-39.3-39.8c-1.4-1.4-2.4-3.1-3.6-4.6c2,0.8,4.1,1.2,5.9,2.3
	c43.1,24.9,86.2,49.9,129.3,75c8.6,5,16.7,6,25.1-0.1c2.3-1.7,4.7-3.1,7.1-4.5c42.6-24.5,85.2-49.1,127.9-73.4
	c7.7-4.4,10.8-10.4,10.8-19.1c-0.2-49.8,0-99.6-0.1-149.4C542.1,265.1,541.3,259,541,252.9L541,252.9z"/>
  <path class="st4" d="M279,485c0.9,0.7,1.9,1.4,2.7,2.2c34.5,34.1,69,68.1,103.3,102.3c29.5,29.4,58.6,59.2,87.8,88.8
	c1.4,1.4,2.2,3.5,3.3,5.3c-1.5,0.1-3,0.2-4.5,0.2c-83.9,0-167.9,0.8-251.8-0.5c-23.4-0.3-41.6-14.4-53.5-35
	c-16.5-28.3-32.8-56.8-49.2-85.2c-8.5-14.7-16.8-29.5-25.2-44.2c8.7-0.7,17.4-1.9,26.1-2c60.4-0.2,120.9-0.1,181.3-0.1
	c1.7,0,3.4-0.5,5.2-0.8c-1-1.4-1.9-3-3.1-4.2c-6.9-7-14-13.8-20.7-21C279.4,489.6,279.5,487,279,485L279,485z"/>
  <path class="st5" d="M465.2,341c-0.1-10.8-0.2-21.6-0.1-32.4c0-3.9-1.3-4.2-4.2-2.5c-22.2,13-44.4,26-66.5,39.2
	c-1.3,0.8-2.2,3.1-2.3,4.8c-0.3,8.3-0.2,16.6-0.3,24.9h-15.5c-0.1-8.2,0.1-16.3-0.3-24.5c-0.1-2-1.5-4.8-3.2-5.8
	c-22.1-13-44.4-25.8-66.5-38.6c-3.7-2.1-3.2,0.3-3.2,2.5c0,22-0.1,44,0.1,66c0,3.9-1.3,5.9-4.6,7.7c-14,7.8-27.8,15.8-41.5,23.9
	c-3.1,1.8-3.7,1.4-3.7-2.1c0.1-44.7,0-89.3,0.2-134c0-1.8,1.6-4.4,3.2-5.3c38.4-22.4,76.9-44.5,115.3-66.8c3.1-1.8,4.3-2.2,4.2,2.3
	c-0.2,16.3,0,32.7-0.2,49c0,1.8-1.5,4.4-3.1,5.3c-19.2,11.3-38.6,22.2-57.9,33.4c-1.2,0.7-2.2,1.8-3.3,2.6c1.1,0.8,2.1,1.6,3.2,2.2
	c22.2,13,44.3,26,66.6,38.9c1,0.6,2.9,0.8,3.8,0.2c23-13.2,45.8-26.5,68.8-39.6c3.7-2.1,1.5-2.8-0.3-3.8
	c-10.4-6.2-20.8-12.3-31.2-18.4c2.6-0.8,5.2-2.1,7.9-2.1c28-0.1,56-0.1,84.1-0.1c0,24.3,0,48.6,0,73
	C498.1,340.9,481.7,340.9,465.2,341L465.2,341z"/>
  <path class="st6" d="M376.2,375h15.5c0.1,17,0.3,34,0.1,51c0,4.9,1.1,4.6,4.7,2.5c19-11.1,38-22.1,57.1-32.9c1.8-1,4.9-1.2,6.6-0.3
	c14.4,8,28.6,16.4,42.9,24.5c3.5,2,2.5,2.7-0.2,4.3c-32.3,18.5-64.5,37.1-96.8,55.7c-6,3.5-11.9,7.3-18.1,10.4
	c-2.1,1.1-5.7,1.4-7.7,0.2c-25.5-14.4-50.7-29-76-43.7c-13-7.5-25.9-15-38.9-22.5c-2.9-1.6-4.5-2.4-0.3-4.8
	c14.2-8,28.2-16.4,42.5-24.3c1.7-0.9,4.9-0.8,6.6,0.2c19.1,10.8,38.2,21.8,57.1,32.9c3.5,2.1,4.7,2.5,4.7-2.5
	C376,408.9,376.2,391.9,376.2,375L376.2,375z"/>
  <path class="st7" d="M514.5,268c-28,0-56-0.1-84.1,0.1c-2.6,0-5.2,1.4-7.9,2.1c-9.5-5.4-19.1-10.7-28.5-16.3c-1.1-0.6-2-2.6-2-4
	c-0.1-16.8,0-33.6-0.1-50.4c0-3.4,0.8-3.5,3.5-1.9c26.4,15.3,52.9,30.6,79.4,45.9c12.1,7,24.1,13.9,36.1,20.9
	C512.3,265.3,513.3,266.8,514.5,268L514.5,268z"/>
  <path class="st8" d="M465.2,341c16.4,0,32.8,0,49.2,0c0.1,21.5,0.2,42.9,0.2,64.4c0,0.5-2,1.6-2.4,1.4
	c-15.2-8.6-30.3-17.3-45.4-26.2c-1-0.6-1.8-2.4-1.8-3.6C465,364.9,465.2,352.9,465.2,341L465.2,341z"/>
</svg>
